inDegrees=no
num_controls=7
num_derivatives=13
num_iterations=123
num_multipliers=7
num_parameters=0
num_slacks=7
num_states=26
objective=0.278427
objective_accelerations=0.000000
objective_balance=0.003323
objective_effort=0.054254
objective_height=0.167155
objective_ligament=0.053696
solver_duration=1797.025751
status=Solve_Succeeded
success=true
DataType=double
version=3
OpenSimVersion=4.5
endheader
time	/jointset/ground_pelvis/pelvis_tilt/value	/jointset/ground_pelvis/pelvis_tx/value	/jointset/ground_pelvis/pelvis_ty/value	/jointset/hip_l/hip_flexion_l/value	/jointset/hip_l/hip_adduction_l/value	/jointset/hip_l/hip_rotation_l/value	/jointset/back/lumbar_extension/value	/jointset/patellofemoral_l/patellar_flexion_l/value	/jointset/knee_l/knee_flexion_l/value	/jointset/knee_l/knee_adduction_l/value	/jointset/knee_l/knee_rotation_l/value	/jointset/ankle_l/ankle_angle_l/value	/jointset/subtalar_l/subtalar_angle_l/value	/jointset/ground_pelvis/pelvis_tilt/speed	/jointset/ground_pelvis/pelvis_tx/speed	/jointset/ground_pelvis/pelvis_ty/speed	/jointset/hip_l/hip_flexion_l/speed	/jointset/hip_l/hip_adduction_l/speed	/jointset/hip_l/hip_rotation_l/speed	/jointset/back/lumbar_extension/speed	/jointset/patellofemoral_l/patellar_flexion_l/speed	/jointset/knee_l/knee_flexion_l/speed	/jointset/knee_l/knee_adduction_l/speed	/jointset/knee_l/knee_rotation_l/speed	/jointset/ankle_l/ankle_angle_l/speed	/jointset/subtalar_l/subtalar_angle_l/speed	/forceset/tau_hip_flexion_l	/forceset/tau_hip_adduction_l	/forceset/tau_hip_rotation_l	/forceset/tau_knee_flexion_l	/forceset/tau_ankle_angle_l	/forceset/tau_subtalar_angle_l	/forceset/tau_lumbar_extension	lambda_cid13_p0	lambda_cid13_p1	lambda_cid13_p2	lambda_cid13_p3	lambda_cid13_p4	lambda_cid13_p5	lambda_cid14_p0	/jointset/ground_pelvis/pelvis_tilt/accel	/jointset/ground_pelvis/pelvis_tx/accel	/jointset/ground_pelvis/pelvis_ty/accel	/jointset/hip_l/hip_flexion_l/accel	/jointset/hip_l/hip_adduction_l/accel	/jointset/hip_l/hip_rotation_l/accel	/jointset/back/lumbar_extension/accel	/jointset/patellofemoral_l/patellar_flexion_l/accel	/jointset/knee_l/knee_flexion_l/accel	/jointset/knee_l/knee_adduction_l/accel	/jointset/knee_l/knee_rotation_l/accel	/jointset/ankle_l/ankle_angle_l/accel	/jointset/subtalar_l/subtalar_angle_l/accel	gamma_cid13_p0	gamma_cid13_p1	gamma_cid13_p2	gamma_cid13_p3	gamma_cid13_p4	gamma_cid13_p5	gamma_cid14_p0
0.5	-0.2273785598222329	-0.01809492928223555	0.3613505779492896	2.181661056411408	-0.236827456616109	0.5134675707920295	-0.4363248025204048	2.16419120301349	2.164191203013427	0.05874942040545462	-0.1697430594747488	0.4363322660972751	0.4283699017932369	0.24108552931436	0.0172550050613475	-0.06077644558247952	-0.0006163966553379694	-0.001295198091994728	0.1431987920927987	0.0006620429001334838	0.1987249950188999	0.1987249950189003	-0.02413465537932553	-0.1424809822842703	-5.806450481091305e-05	-0.005237303860862284	-0.08747864504405332	-0.04090637449158657	0.0003467957806210761	-0.436640022763281	0.1028493262530532	0.02202857082266468	0.1070915492022827	1.798288887573034	-0.6282410134271902	-10.7507278137564	-6.025180695891751	-477.7215544895847	-185.5319399616884	-0.01512394318325094	-1.913720177130917	-0.2768919736786816	0.4491838519789561	-0.1925023328084103	1.269753433430011	0.07021277830167377	-0.09910138690719503	-1.463873109899449	-1.463873109899448	-0.07144400878837572	3.11765617086349	-0.1704896739076798	2.054827873842461	1.320740324483965e-07	-1.683618148198434e-07	-7.995116604986934e-08	-5.09256965419211e-08	-2.741644115431477e-08	-2.884103451339148e-07	7.39361386859947e-08
0.51	-0.2250620553478737	-0.01793490530543425	0.3607645020970012	2.1816479300522	-0.2367841137289976	0.5148964710752906	-0.4363219807005882	2.166107395941564	2.16610739594153	0.05850735473458003	-0.171024334679644	0.4363246731299396	0.4284092635248374	0.2222915876248677	0.01488009081530832	-0.05652171630045792	-0.001631463224923463	0.009171335132281223	0.1419549026128644	7.814696740289863e-05	0.1847061819677384	0.1847061819677278	-0.02407970786341737	-0.1152045245767003	-0.001357519060191563	0.01183619002322709	-0.0856156678567843	-0.04027413150495596	0.000320877236233217	-0.4358145244367833	0.1061490397616825	0.02088758582027863	0.1062315703689387	2.779323015982376	-0.02373410231877042	-11.16778566183789	-8.093219935713233	-476.383783820886	-183.8701155090097	-0.01505690574888167	-1.850781733955565	-0.1982566752616615	0.4011631459620413	0.0006192686590121132	0.8162530257977921	-0.3156556561053508	-0.01165981175255248	-1.342012620830976	-1.3420126208326	0.07378127877771777	2.318041538734778	-0.09420719752093532	1.342621468582596	2.484107816515304e-08	-1.020351131957794e-07	-1.573406697005114e-07	-5.184932995744405e-08	1.530138702763223e-08	-4.607096713353269e-07	7.002793392473934e-08
0.52	-0.2229312004042274	-0.01779472357613213	0.3602184826734624	2.181635978644775	-0.2366598755578692	0.5162941392947581	-0.436319723063173	2.167889175295506	2.167889175295501	0.05827180196826229	-0.1720757651138557	0.436307178846797	0.4285811624598569	0.2039556231714738	0.01328655556151161	-0.052765159832527	-0.0003814062868014619	0.01488385871141191	0.1369523793343552	0.0005492064227979449	0.1718422801923203	0.1718422801922987	-0.02283207446761654	-0.09651202814789051	-0.002038327662274031	0.02127013682293471	-0.08375269066951803	-0.03964188851832585	0.0002949586918472728	-0.4349890261102874	0.1094487532703105	0.0197466008178903	0.1053715915355917	3.750086864780808	0.5954555522984902	-11.60190168211722	-10.12949799876977	-475.0679205588919	-182.1615547383614	-0.01498870448845554	-1.822124729911742	-0.1206161752299726	0.3495492891607678	0.2605223687334168	0.3189515044007547	-0.6815139814132954	0.1118896907175232	-1.232890854750514	-1.232890854750542	0.167093167190233	1.400863915111312	-0.04676048324751027	0.5269184569662507	-1.092377112853982e-07	-9.526981419776302e-08	-2.086085962190964e-07	-4.949157365176407e-08	1.028526969223879e-07	-7.392978714147193e-07	5.064248768082084e-08
0.53	-0.2209796741678823	-0.01766770973611945	0.3597084423025634	2.181640738516577	-0.2364927828503295	0.5176063138261788	-0.4363109904011245	2.169547274588172	2.169547274588161	0.05807516314530132	-0.1729537388225708	0.4362864506288359	0.4288265556159938	0.1866090332089154	0.01213217828001468	-0.04923493619710522	0.0009872659174449652	0.01868390359515843	0.1235629221777203	0.001012000615661158	0.1598867928779484	0.1598867928779277	-0.01460471121063655	-0.07775751192320703	-0.001952584743307004	0.02825179335882343	-0.08385478337283175	-0.03907167254380337	0.0001233622026292588	-0.4345795707978036	0.1092592593406325	0.01931865477021642	0.1055176982755251	3.623302140022006	0.7967329955884105	-11.6262483526128	-10.05969892964326	-474.7758273762705	-181.9584376393069	-0.01499372086465099	-1.652051834978743	-0.1104632789165381	0.35598539102397	0.02308851940419565	0.4329523873834076	-1.95557266323386	-0.01432452354736898	-1.160503580789229	-1.160503580789068	1.434279747902956	2.311442835064919	0.05942125427786741	0.8503313689094536	-1.166171813363626e-07	-9.263474070008759e-08	-2.130303570729905e-07	-3.086458406698399e-08	9.987164810245361e-08	-8.796747927887298e-07	7.069148224903213e-08
